<?xml version="1.0" encoding="UTF-8" standalone="no"?>
<!-- Created with Inkscape (http://www.inkscape.org/) -->

<svg
   width="210mm"
   height="297mm"
   viewBox="0 0 210 297"
   version="1.1"
   id="svg5"
   inkscape:export-filename="cradt.svg"
   inkscape:export-xdpi="96"
   inkscape:export-ydpi="96"
   xmlns:inkscape="http://www.inkscape.org/namespaces/inkscape"
   xmlns:sodipodi="http://sodipodi.sourceforge.net/DTD/sodipodi-0.dtd"
   xmlns="http://www.w3.org/2000/svg"
   xmlns:svg="http://www.w3.org/2000/svg">
  <sodipodi:namedview
     id="namedview7"
     pagecolor="#505050"
     bordercolor="#eeeeee"
     borderopacity="1"
     inkscape:showpageshadow="0"
     inkscape:pageopacity="0"
     inkscape:pagecheckerboard="0"
     inkscape:deskcolor="#505050"
     inkscape:document-units="mm"
     showgrid="false"
     inkscape:zoom="0.33071229"
     inkscape:cx="350.75805"
     inkscape:cy="507.99442"
     inkscape:window-width="1366"
     inkscape:window-height="705"
     inkscape:window-x="-8"
     inkscape:window-y="-8"
     inkscape:window-maximized="1"
     inkscape:current-layer="layer1" />
  <defs
     id="defs2" />
  <g
     inkscape:label="Capa 1"
     inkscape:groupmode="layer"
     id="layer1"
     style="display:none">
    <rect
       style="fill:#d3aeaf;fill-opacity:1;stroke:none;stroke-width:25;stroke-linecap:square;stroke-linejoin:round;stroke-miterlimit:11.3;stroke-dasharray:none;stroke-opacity:1;paint-order:fill markers stroke;stop-color:#000000"
       id="rect6872"
       width="210"
       height="297"
       x="0"
       y="0" />
    <path
       style="fill:#6d3c3d;fill-opacity:1;stroke-width:2.5;stroke-linecap:square;stroke-linejoin:round;stroke-miterlimit:11.3;paint-order:fill markers stroke;stop-color:#000000"
       d="m 104.99979,113.35535 c -19.557974,1.8e-4 -35.144135,15.58665 -35.144106,35.14463 -2.9e-5,19.55798 15.586132,35.14444 35.144106,35.14462 19.55813,3e-5 35.14466,-15.58649 35.14463,-35.14462 3e-5,-19.55813 -15.5865,-35.14466 -35.14463,-35.14463 z"
       id="path5339" />
    <path
       style="fill:#6d3c3d;fill-opacity:1;stroke-width:2.5;stroke-linecap:square;stroke-linejoin:round;stroke-miterlimit:11.3;paint-order:fill markers stroke;stop-color:#000000"
       d="m 210.0001,19.783805 -67.00469,82.191365 c 13.49578,11.05481 22.14906,27.83119 22.14903,46.52481 5e-5,33.06913 -27.07552,60.14471 -60.14465,60.14465 -5.807712,-6e-5 -11.429181,-0.83863 -16.75298,-2.39469 L 15.98042,296.99996 H 210.0001 Z"
       id="path5337" />
    <path
       style="fill:#6d3c3d;fill-opacity:1;stroke-width:2.5;stroke-linecap:square;stroke-linejoin:round;stroke-miterlimit:11.3;paint-order:fill markers stroke;stop-color:#000000"
       d="M 0,0 V 276.93297 L 65.939128,194.13079 C 53.055366,183.07626 44.855634,166.69653 44.85566,148.49998 c -4.8e-5,-33.06888 27.075264,-60.144341 60.14413,-60.14465 5.25884,-8e-6 10.36539,0.68734 15.23628,1.971973 L 193.87344,0 Z"
       id="rect857" />
  </g>
  <g
     inkscape:groupmode="layer"
     id="layer2"
     inkscape:label="Capa 2">
    <path
       id="path7064"
       style="fill:#5d9551;fill-opacity:1;stroke:none;stroke-width:25;stroke-linecap:square;stroke-linejoin:round;stroke-miterlimit:11.3;stroke-dasharray:none;stroke-opacity:1;paint-order:fill markers stroke;stop-color:#000000"
       d="m 85.5493,254.57878 -10.616923,11.35951 c -11.06473,-8.30079 -33.722489,-6.30142 -33.722489,-6.30142 l -0.239262,11.53986 -9.654191,6.57738 c -3.0984,-5.1287 -6.234245,-8.81497 -6.234245,-8.81497 l -11.086145,7.55303 c -7.6918378,-8.43521 -25.855786,-11.2696 -25.855786,-11.2696 l -4.984709,18.603 C -21.829048,302.42833 0,313.00105 0,313.00105 c 0,0 0.58646649,-0.002 2.2665283,-1.7756 0.363453,1.04892 0.6247681,1.65674 0.6247681,1.65674 0,0 1.5869522,1.34995 15.0435266,-2.69906 0.738863,2.74893 1.493965,4.4943 1.493965,4.4943 0,0 1.676928,1.43066 16.24242,-3.06441 0.328871,0.93302 0.558105,1.46451 0.558105,1.46451 0,0 2.025337,1.74056 21.084501,-4.62194 5.914003,3.17443 11.139372,4.32067 11.139372,4.32067 0,0 0.413058,-0.10387 1.280542,-1.38545 0.382126,0.59344 0.628385,0.94051 0.628385,0.94051 0,0 3.124105,1.62445 27.018506,-13.37644 4.504091,13.59775 6.529831,14.13557 6.529831,14.13557 0,0 9.9497,-2.28843 17.63717,-9.36842 6.57973,6.52553 16.59175,8.56795 16.59175,8.56795 0,0 1.14161,-0.27608 3.62872,-5.91798 2.64635,6.40853 3.86023,6.71793 3.86023,6.71793 0,0 12.44571,-2.6859 19.06757,-11.56828 8.09677,10.08416 22.17177,13.1687 22.17177,13.1687 0,0 1.59609,-0.41386 5.09013,-9.3369 3.86818,12.04092 5.61516,12.53722 5.61516,12.53722 0,0 25.19082,-6.18039 24.75611,-29.6602 l -0.43459,-23.47971 c 0,0 -16.68145,-1.64607 -27.1446,4.269 -10.41007,-9.65031 -35.12499,-7.46932 -35.12499,-7.46932 l -0.16381,7.88531 c -6.5095,0.32854 -15.05604,1.63494 -20.04994,5.89525 -2.86941,-1.14597 -6.1352,-1.83899 -9.29142,-2.24689 l -0.25942,-13.13357 c 0,0 -21.49346,-1.99121 -32.056441,6.25027 C 92.009387,259.42001 85.5493,254.57878 85.5493,254.57878 Z" />
  </g>
</svg>
